<?xml version="1.0" standalone="no"?>
<!DOCTYPE svg PUBLIC "-//W3C//DTD SVG 20010904//EN"
 "http://www.w3.org/TR/2001/REC-SVG-20010904/DTD/svg10.dtd">
<svg version="1.0" xmlns="http://www.w3.org/2000/svg"
 width="1902.000000pt" height="1902.000000pt" viewBox="0 0 1902.000000 1902.000000"
 preserveAspectRatio="xMidYMid meet">
<metadata>
Created by potrace 1.14, written by Peter Selinger 2001-2017
</metadata>
<g transform="translate(0.000000,1902.000000) scale(0.100000,-0.100000)"
fill="#000000" stroke="none">
<path d="M9330 13968 c3 -3 56 -8 119 -12 62 -3 116 -8 120 -10 3 -2 31 -7 61
-11 30 -4 58 -9 61 -11 3 -2 19 -6 35 -8 52 -10 75 -15 94 -21 10 -3 27 -7 37
-9 110 -22 400 -148 559 -244 189 -113 446 -340 577 -508 266 -341 429 -755
453 -1149 4 -55 9 -103 13 -106 7 -8 338 -199 344 -199 6 0 -8 223 -18 285
-19 114 -24 138 -45 230 -17 71 -76 257 -98 310 -44 101 -153 308 -203 385
-117 181 -293 381 -449 511 -36 30 -67 56 -70 59 -20 22 -195 139 -290 194
-263 151 -597 263 -900 301 -62 8 -406 19 -400 13z"/>
<path d="M9288 13432 c-8 -2 -39 -61 -73 -140 -31 -75 -65 -155 -75 -177 -10
-22 -41 -96 -70 -165 -28 -69 -139 -330 -245 -580 -106 -250 -293 -691 -415
-980 -122 -289 -228 -538 -235 -555 -7 -16 -48 -111 -90 -210 -93 -217 -150
-328 -217 -416 -59 -79 -96 -99 -228 -130 -52 -12 -100 -23 -106 -24 -7 -2
-10 -40 -10 -107 l1 -103 592 -3 592 -2 3 110 3 110 -25 1 c-14 0 -34 2 -45 3
-11 2 -49 6 -84 10 -35 4 -67 9 -71 11 -3 2 -17 6 -31 9 -74 14 -124 55 -133
108 -4 31 19 129 49 206 35 87 181 435 213 505 l26 57 604 -2 604 -3 34 -80
c18 -44 34 -78 34 -75 6 23 10 54 15 105 4 33 8 71 10 85 2 14 6 50 10 80 3
30 8 71 10 90 3 19 7 53 9 75 3 22 8 58 11 80 2 22 7 65 10 95 5 57 22 198 30
260 6 47 12 93 20 165 3 33 10 86 14 118 5 39 4 63 -4 75 -7 9 -14 26 -17 37
-5 18 -323 787 -495 1198 l-66 157 -36 1 c-20 0 -52 1 -72 2 -20 1 -42 1 -51
-1z m12 -1202 c39 -96 77 -188 85 -205 7 -16 32 -77 55 -135 24 -57 46 -111
51 -120 7 -13 176 -424 194 -470 5 -14 -48 -15 -465 -16 -258 0 -470 3 -470 6
0 9 473 1120 476 1118 1 -2 34 -82 74 -178z"/>
<path d="M10002 12647 c-5 -7 -20 -32 -33 -56 l-24 -44 25 -16 c100 -65 142
-137 141 -239 0 -37 -3 -76 -5 -87 -2 -11 -7 -51 -11 -90 -4 -38 -8 -77 -10
-85 -2 -9 -6 -46 -9 -82 -4 -37 -8 -75 -10 -85 -2 -10 -7 -49 -11 -88 -4 -38
-8 -83 -11 -100 -2 -16 -6 -55 -9 -85 -4 -30 -8 -66 -10 -80 -2 -14 -6 -50
-10 -80 -3 -30 -8 -71 -11 -90 -2 -19 -6 -55 -9 -80 -3 -25 -7 -61 -10 -80 -2
-19 -7 -60 -10 -90 -4 -30 -8 -66 -10 -80 -2 -14 -7 -53 -10 -87 -3 -34 -7
-70 -9 -80 -2 -10 -7 -49 -11 -88 -4 -38 -8 -77 -10 -85 -1 -8 -6 -46 -10 -83
-3 -37 -8 -76 -10 -85 -1 -9 -6 -51 -10 -92 -4 -41 -9 -82 -10 -90 -2 -8 -6
-42 -9 -75 l-7 -61 41 -23 c22 -12 47 -21 54 -18 12 5 112 82 646 500 118 92
229 178 245 191 40 31 373 291 555 433 227 177 317 212 439 172 l52 -17 26 41
c14 23 26 48 27 56 1 12 -347 223 -546 330 l-56 31 -26 -46 c-14 -26 -26 -50
-26 -55 0 -5 20 -27 45 -50 59 -55 87 -101 83 -138 -4 -32 -66 -105 -139 -161
-24 -19 -46 -37 -49 -40 -3 -3 -129 -102 -280 -220 -151 -118 -344 -268 -429
-335 -84 -66 -173 -136 -198 -154 l-46 -35 7 74 c4 41 9 76 10 79 2 4 7 42 11
85 4 43 8 86 10 95 1 9 6 43 9 76 12 105 17 149 21 180 2 17 7 57 10 90 3 33
8 71 10 85 2 14 6 50 10 80 4 30 8 66 10 80 2 14 7 57 11 95 3 39 8 78 10 89
2 10 6 44 9 75 18 164 43 261 79 299 18 20 28 23 67 19 26 -3 74 -16 108 -30
l61 -25 30 53 c32 56 35 65 22 65 -8 0 -67 33 -437 248 -71 41 -150 86 -175
100 -25 14 -73 42 -107 63 -45 27 -65 34 -71 26z"/>
<path d="M7059 11739 c-1 -41 -1 -76 -1 -79 0 -3 3 -61 6 -130 4 -69 8 -134
10 -145 2 -11 7 -45 11 -75 11 -87 60 -286 98 -395 87 -252 212 -479 386 -698
48 -61 57 -68 80 -62 14 4 31 8 36 9 26 4 81 32 92 45 9 13 -3 29 -66 91 -80
78 -160 170 -224 255 -20 28 -40 55 -45 60 -24 29 -112 183 -157 275 -127 256
-195 518 -212 810 -3 58 -7 107 -9 109 -2 2 -5 -29 -5 -70z"/>
<path d="M11690 11393 c-52 -19 -131 -70 -251 -165 l-86 -68 -43 -107 c-80
-203 -175 -370 -299 -530 -67 -85 -82 -103 -143 -169 -29 -30 -29 -33 -14 -61
17 -34 82 -95 123 -116 53 -27 226 -55 249 -39 38 26 254 324 254 351 0 6 3
11 8 11 4 0 12 10 18 23 6 12 31 63 56 112 64 127 147 337 163 415 2 8 11 47
20 85 15 65 44 234 45 263 0 16 -44 14 -100 -5z"/>
<path d="M10389 11112 c-1 -18 -2 -35 -3 -39 -2 -7 -14 -108 -21 -173 -2 -14
-6 -51 -10 -84 -5 -47 -4 -57 7 -50 31 19 138 108 138 115 0 10 -99 251 -105
258 -3 2 -6 -10 -6 -27z"/>
<path d="M10590 10567 c-14 -12 -40 -33 -58 -47 -18 -14 -45 -35 -60 -47 -15
-12 -106 -83 -202 -158 -96 -75 -180 -146 -187 -160 -14 -27 -67 -62 -103 -68
-14 -3 -36 -8 -50 -11 -14 -3 -55 -8 -92 -10 -37 -2 -70 -6 -75 -9 -5 -3 -8
-52 -8 -109 l1 -103 724 0 724 0 1 98 c0 55 -3 103 -6 109 -3 5 -26 11 -50 13
-100 9 -152 22 -218 57 -81 42 -138 117 -226 293 -41 83 -75 156 -75 163 0 17
-11 14 -40 -11z"/>
<path d="M8111 9728 c61 -40 247 -148 254 -148 2 0 36 -15 77 -34 138 -63 381
-142 498 -161 19 -3 42 -8 50 -10 13 -4 49 -9 130 -20 132 -19 398 -24 520
-11 36 4 85 9 110 12 307 30 721 183 996 368 l66 44 -439 1 c-431 0 -439 0
-528 -24 -93 -24 -170 -41 -240 -51 -22 -3 -51 -8 -65 -11 -14 -3 -122 -7
-240 -8 -216 -4 -329 5 -485 39 -75 15 -80 17 -166 40 -43 11 -118 15 -329 15
l-273 0 64 -41z"/>
<path d="M1241 7660 c-23 -54 -41 -104 -41 -109 0 -6 -4 -11 -10 -11 -5 0 -10
-6 -10 -13 0 -12 -41 -115 -85 -212 -7 -16 -52 -122 -100 -235 -48 -113 -93
-218 -100 -235 -7 -16 -50 -118 -95 -225 -45 -107 -102 -242 -126 -300 -25
-58 -49 -114 -54 -125 -5 -11 -48 -112 -95 -225 -166 -397 -234 -532 -291
-581 -23 -21 -93 -45 -155 -54 -71 -11 -72 -11 -71 -121 0 -55 1 -106 1 -114
1 -13 60 -15 471 -15 464 0 470 0 471 20 1 11 2 66 3 122 l1 103 -30 1 c-58 3
-151 16 -193 29 -81 23 -78 40 65 375 l68 160 405 0 405 0 68 -165 c83 -201
121 -324 107 -350 -13 -24 -99 -43 -222 -49 -16 -1 -17 -14 -17 -120 1 -80 5
-121 13 -123 6 -2 261 -4 566 -4 l555 1 3 123 c3 121 2 122 -20 123 -82 4
-158 19 -200 40 -76 39 -123 119 -253 434 -48 116 -136 329 -197 475 -60 146
-115 279 -122 295 -8 17 -51 120 -96 230 -101 247 -128 312 -145 350 -8 17
-33 77 -56 135 -23 58 -51 128 -63 155 -12 28 -46 109 -76 181 l-54 132 -92 0
-92 0 -41 -98z m66 -875 c11 -27 31 -75 43 -105 13 -30 29 -69 36 -85 16 -37
37 -88 39 -95 1 -3 6 -16 12 -30 45 -107 103 -250 103 -253 0 -2 -121 -4 -270
-4 -148 0 -270 2 -270 3 0 2 11 27 24 56 23 50 217 505 237 557 12 29 18 22
46 -44z"/>
<path d="M5180 7682 c-47 -112 -220 -522 -235 -557 -8 -16 -52 -122 -100 -235
-47 -113 -95 -224 -106 -247 -10 -24 -19 -45 -19 -48 0 -4 -26 -63 -60 -140
-5 -11 -71 -166 -146 -345 -75 -179 -147 -348 -160 -377 -13 -28 -24 -55 -24
-59 0 -22 -113 -226 -153 -276 -12 -15 -113 -62 -127 -59 -3 1 -25 -2 -50 -6
-25 -4 -48 -6 -52 -5 -9 2 -11 -24 -10 -147 1 -46 4 -86 7 -90 11 -11 935 -7
936 4 4 41 3 219 -2 226 -3 5 -30 12 -60 15 -114 11 -180 25 -205 45 -19 15 6
99 95 310 l86 204 405 0 404 0 49 -115 c99 -236 142 -366 130 -397 -11 -28
-66 -40 -229 -52 -8 -1 -11 -38 -10 -123 l1 -123 565 0 565 0 3 123 c3 121 2
122 -20 123 -138 6 -190 23 -246 78 -61 60 -95 128 -231 456 -61 149 -116 279
-120 290 -26 59 -48 113 -146 350 -59 143 -113 274 -120 290 -7 17 -51 122
-98 235 -46 113 -133 322 -192 466 l-108 261 -93 1 -92 1 -32 -77z m65 -917
c20 -49 43 -103 50 -120 7 -16 29 -68 48 -115 19 -47 54 -130 77 -185 23 -55
42 -107 43 -115 2 -13 -34 -15 -266 -16 -186 0 -266 3 -263 10 2 6 20 47 39
91 19 44 43 100 54 125 11 25 55 129 99 232 43 103 79 186 80 185 1 -1 19 -42
39 -92z"/>
<path d="M17546 7751 c-2 -3 -90 -211 -196 -461 -106 -250 -201 -474 -211
-497 -10 -23 -19 -44 -19 -47 0 -3 -11 -29 -24 -58 -14 -29 -41 -93 -62 -143
-20 -49 -45 -108 -54 -130 -10 -22 -87 -202 -170 -400 -84 -198 -166 -389
-183 -425 -44 -95 -115 -198 -146 -214 -29 -16 -127 -43 -176 -49 l-30 -4 0
-119 0 -119 470 0 470 0 3 123 c1 67 -1 122 -5 123 -179 12 -258 30 -266 60
-8 32 10 92 84 266 38 92 77 184 85 203 l14 35 404 0 c223 0 406 -2 409 -5 2
-3 38 -91 80 -195 75 -185 105 -289 94 -318 -6 -17 -78 -36 -157 -41 -30 -2
-62 -4 -70 -5 -13 -1 -15 -20 -13 -117 0 -63 4 -118 8 -122 8 -8 1124 -10
1126 -2 1 3 2 58 3 123 1 111 0 117 -19 118 -198 8 -258 48 -345 227 -28 59
-55 115 -61 124 -5 10 -9 22 -9 28 0 5 -11 33 -24 62 -13 29 -29 67 -36 83
-105 255 -353 855 -360 870 -9 18 -48 112 -265 640 -30 72 -78 189 -108 260
l-54 130 -92 1 c-50 1 -93 -1 -95 -5z m14 -933 c7 -18 18 -46 25 -63 7 -16 29
-70 50 -120 20 -49 42 -103 50 -120 7 -16 29 -70 49 -120 20 -49 41 -99 45
-110 11 -25 20 -53 21 -63 0 -4 -119 -7 -265 -8 -146 0 -265 0 -265 1 0 4 49
125 62 155 9 19 46 107 83 195 37 88 78 184 91 213 13 29 24 57 24 62 0 22 18
8 30 -22z"/>
<path d="M2035 7702 c-20 -3 -21 -10 -21 -122 1 -66 3 -120 6 -121 3 -1 25 -3
50 -4 127 -10 215 -48 256 -110 9 -13 45 -91 80 -172 35 -82 68 -157 73 -168
22 -49 142 -328 181 -420 7 -16 19 -43 26 -60 26 -61 456 -1061 469 -1090 7
-16 49 -113 92 -215 l80 -185 98 0 98 0 13 37 c7 20 19 52 27 70 8 18 56 134
106 258 229 570 423 1048 436 1077 8 17 15 37 15 45 0 8 4 18 9 23 4 6 25 53
45 105 21 52 44 109 51 125 7 17 45 109 83 205 94 234 118 285 153 337 60 87
103 114 215 135 35 6 65 14 65 17 1 3 2 57 3 119 1 94 -1 112 -14 113 -19 1
-881 1 -896 0 -8 -1 -11 -38 -10 -118 l1 -117 80 -16 c108 -22 151 -39 163
-64 19 -43 -18 -147 -317 -886 -39 -96 -108 -266 -153 -377 -45 -112 -83 -202
-84 -200 -1 1 -56 128 -122 282 -66 154 -157 366 -202 470 -44 105 -90 210
-101 234 -103 223 -169 412 -169 482 0 15 35 34 80 44 18 4 150 23 170 24 12
1 15 19 13 104 0 56 -2 111 -2 122 -1 20 -8 20 -563 20 -310 0 -572 -1 -583
-3z"/>
<path d="M6725 7700 c-1 -3 -2 -59 -1 -125 l1 -120 110 -6 c96 -5 119 -10 177
-38 44 -21 87 -52 126 -92 l59 -60 -2 -892 c-2 -491 -6 -908 -10 -927 -17 -85
-50 -101 -216 -103 l-119 -1 0 -123 c0 -68 3 -124 8 -124 4 -1 234 -2 510 -3
330 -1 506 2 510 9 4 5 7 62 7 126 l0 116 -115 1 c-121 1 -129 2 -172 20 -51
21 -52 30 -55 782 -2 556 0 692 10 679 6 -8 26 -33 44 -55 17 -21 75 -93 128
-159 53 -66 111 -138 130 -160 26 -33 191 -235 382 -471 17 -21 86 -106 152
-189 67 -82 135 -166 150 -185 16 -19 111 -137 212 -261 101 -125 196 -242
211 -261 l27 -33 98 0 98 1 5 1139 c3 627 9 1156 14 1175 16 72 61 90 220 90
58 0 107 3 107 8 4 24 3 242 -1 243 -7 1 -969 1 -1001 0 l-26 -1 -1 -125 0
-125 111 -1 c120 -1 128 -1 170 -18 60 -23 63 -65 64 -760 l1 -622 -20 23
c-11 13 -91 110 -177 217 -86 107 -191 237 -234 290 -43 53 -84 103 -90 111
-10 12 -322 398 -364 450 -7 8 -111 138 -233 288 -121 149 -226 272 -233 273
-53 4 -770 3 -772 -1z"/>
<path d="M9717 7702 c-9 -2 -17 -9 -18 -15 0 -7 -2 -48 -4 -92 -2 -44 -6 -129
-9 -190 -3 -60 -8 -177 -11 -260 -3 -82 -8 -160 -11 -172 -5 -27 -14 -25 143
-27 l113 -1 1 50 c1 53 1 54 18 135 23 109 97 201 172 215 70 14 250 22 369
16 l25 -1 -1 -898 c-1 -493 -4 -932 -8 -975 -13 -132 -41 -150 -233 -150 -57
0 -103 -3 -104 -6 -3 -17 -4 -227 -2 -236 2 -7 212 -10 606 -10 l602 0 3 126
3 126 -118 0 c-140 1 -189 15 -199 60 -3 15 -10 44 -15 63 -5 19 -9 454 -9
967 l0 933 32 1 c118 4 289 -2 334 -11 57 -12 120 -50 153 -91 23 -29 56 -116
65 -169 5 -32 15 -94 21 -130 2 -12 23 -15 121 -15 l119 1 -1 84 c0 47 -4 157
-7 245 -4 88 -10 219 -13 290 -3 72 -8 132 -10 134 -5 5 -2102 8 -2127 3z"/>
<path d="M12044 7701 c-2 -2 -4 -59 -4 -127 l0 -122 123 -3 c152 -5 196 -23
211 -85 15 -64 13 -1856 -3 -1927 -19 -87 -44 -98 -226 -101 l-100 -1 0 -125
0 -125 605 0 605 0 3 125 3 126 -111 1 c-78 0 -123 5 -154 17 -51 20 -62 31
-72 71 -4 17 -7 442 -8 945 -2 1049 -4 1025 68 1059 35 18 62 21 159 21 l117
0 0 125 c0 93 -3 125 -12 126 -50 3 -1201 3 -1204 0z"/>
<path d="M13402 7696 c-6 -11 -7 -234 -1 -241 3 -2 55 -5 116 -6 112 -1 172
-16 200 -50 6 -8 14 -43 18 -79 7 -67 9 -1785 2 -1830 -12 -70 -21 -106 -31
-116 -24 -23 -92 -36 -195 -37 -58 0 -108 -4 -111 -8 -7 -10 -4 -224 3 -235 4
-7 1179 -12 1207 -5 5 1 5 197 1 237 -1 6 -41 11 -110 11 -122 2 -188 22 -213
65 -10 18 -14 107 -16 393 l-3 370 91 -90 c187 -185 640 -641 660 -664 45 -54
15 -75 -107 -73 l-63 1 0 -127 0 -127 659 0 c363 0 662 3 666 6 7 8 10 227 3
234 -3 3 -34 8 -69 11 -151 12 -297 73 -435 182 -40 31 -286 271 -548 532
l-475 475 362 366 c359 363 456 449 573 508 73 37 121 48 204 51 35 0 67 3 70
6 2 3 5 59 6 125 1 102 -1 119 -15 120 -21 1 -1033 1 -1047 0 -6 -1 -10 -45
-10 -126 l0 -125 96 0 c122 0 130 -5 100 -62 -12 -23 -43 -68 -69 -98 -53 -63
-294 -306 -426 -429 -50 -47 -118 -111 -151 -143 -34 -32 -65 -58 -68 -58 -12
0 -5 652 8 700 16 67 56 84 211 90 l120 5 0 123 c0 102 -2 122 -15 123 -118 6
-1193 2 -1198 -5z"/>
</g>
</svg>
